# xmcd
#
# Track frame offsets:
#	150
#	4285
#	17562
#	33512
#	50222
#	69102
#	83247
#	101182
#	117825
#	132055
#	148787
#
# Disc length: 2154 seconds
#
# Revision: 1
# Processed by: cddbd v1.5.2PL0 Copyright (c) Steve Scherf et al.
# Submitted via: audiograbber 1.83.01
#
DISCID=9308680b
DTITLE=Anna Ternheim - Separation Road CD 1
DYEAR=2006
DGENRE=
TTITLE0=Intro
TTITLE1=Girl laying down
TTITLE2=Today is a good day
TTITLE3=Such a lonely soul
TTITLE4=Calling love
TTITLE5=No subtle men
TTITLE6=Lovers dream
TTITLE7=Feels like sand
TTITLE8=Tribute to Linn
TTITLE9=One to blame
TTITLE10=Halfway to Fivepoints
EXTD=
EXTT0=
EXTT1=
EXTT2=
EXTT3=
EXTT4=
EXTT5=
EXTT6=
EXTT7=
EXTT8=
EXTT9=
EXTT10=
PLAYORDER=
